<svg width="4320" height="2880" fill="none" xmlns="http://www.w3.org/2000/svg"><path fill="#172340" d="M0 0h4320v2880H0z"/><g style="mix-blend-mode:overlay" fill-opacity=".25"><path d="m1871.88 1471.72 350.69-909.21 568.44 430.199-919.13 479.011Z" fill="url(#a)"/><path d="m3131 1246.54 350.69-909.213 568.44 430.199L3131 1246.54Z" fill="url(#b)"/><path d="m2652.16 2494.42 350.69-909.21 568.44 430.19-919.13 479.02Z" fill="url(#c)"/><path d="m3503.46 1159.86 179.8 396.96-281.47 134.24 101.67-531.2Z" fill="url(#d)"/><path d="m2791.78 1309-330.04 214.34 175.28 297.85L2791.78 1309Z" fill="url(#e)"/><path d="m1583.42 494.045 179.8 396.961-281.47 134.244 101.67-531.205Z" fill="url(#f)"/><path d="M1242.17 969.958 799.269 1848.37l-538.767-516.32 981.668-362.092Z" fill="url(#g)"/><path d="m1644.26 1199.81 89.21 442.79-302.83 42.02 213.62-484.81Z" fill="url(#h)"/><path d="m602.624 1130.57 16.681-735.066 574.545 87.183-591.226 647.883Z" fill="url(#i)"/><path d="m2399.28 1451.37-428.23 799.35-577.94-295.11 1006.17-504.24Z" fill="url(#j)"/></g><defs><linearGradient id="a" x1="2654.94" y1="341.983" x2="1571.44" y2="1401.03" gradientUnits="userSpaceOnUse"><stop stop-color="#9CC1FD"/><stop offset="1" stop-color="#fff" stop-opacity="0"/></linearGradient><linearGradient id="b" x1="3914.06" y1="116.8" x2="2830.56" y2="1175.84" gradientUnits="userSpaceOnUse"><stop stop-color="#233143"/><stop offset="1" stop-color="#233143" stop-opacity="0"/></linearGradient><linearGradient id="c" x1="3435.22" y1="1364.68" x2="2351.72" y2="2423.72" gradientUnits="userSpaceOnUse"><stop stop-color="#9CC1FD"/><stop offset="1" stop-color="#fff" stop-opacity="0"/></linearGradient><linearGradient id="d" x1="3633.99" y1="1805.42" x2="3430.87" y2="1096.96" gradientUnits="userSpaceOnUse"><stop stop-color="#233143"/><stop offset="1" stop-color="#233143" stop-opacity="0"/></linearGradient><linearGradient id="e" x1="2390.73" y1="1764.15" x2="2916.77" y2="1349.38" gradientUnits="userSpaceOnUse"><stop stop-color="#233143"/><stop offset="1" stop-color="#233143" stop-opacity="0"/></linearGradient><linearGradient id="f" x1="1713.95" y1="1139.61" x2="1510.83" y2="431.14" gradientUnits="userSpaceOnUse"><stop stop-color="#233143"/><stop offset="1" stop-color="#233143" stop-opacity="0"/></linearGradient><linearGradient id="g" x1="337.931" y1="2013.81" x2="1536.35" y2="1076.39" gradientUnits="userSpaceOnUse"><stop stop-color="#9CC1FD"/><stop offset="1" stop-color="#fff" stop-opacity="0"/></linearGradient><linearGradient id="h" x1="1631.85" y1="1868.96" x2="1657.81" y2="1118.2" gradientUnits="userSpaceOnUse"><stop stop-color="#9CC1FD"/><stop offset="1" stop-color="#fff" stop-opacity="0"/></linearGradient><linearGradient id="i" x1="898.809" y1="93.962" x2="545.249" y2="1251.19" gradientUnits="userSpaceOnUse"><stop stop-color="#9CC1FD"/><stop offset="1" stop-color="#fff" stop-opacity="0"/></linearGradient><linearGradient id="j" x1="1498.03" y1="2483.9" x2="2411.34" y2="1251.85" gradientUnits="userSpaceOnUse"><stop stop-color="#9CC1FD"/><stop offset="1" stop-color="#fff" stop-opacity="0"/></linearGradient></defs></svg>